# xmcd
#
# Track frame offsets: 
#        150
#        15681
#        34420
#        52793
#        66792
#        87091
#        101735
#        119692
#        135144
#        154508
#
# Disc length: 2232 seconds
#
# Revision: 0
# Processed by: cddbd v1.5.2PL0 Copyright (c) Steve Scherf et al.
# Submitted via: ExactAudioCopy v0.99pb3
#
DISCID=7708b60a
DTITLE=Deana Carter - Southern Way Of Life
DYEAR=2014
DGENRE=Country
TTITLE0=You Can't Stay
TTITLE1=Before You Left
TTITLE2=I Know Better
TTITLE3=I'll Save My Love For You
TTITLE4=I Don't Want To
TTITLE5=That's Just Me
TTITLE6=Waiting For You To Come Home
TTITLE7=I Barely Knew
TTITLE8=Do or Die
TTITLE9=Southern Way of Life
EXTD=
EXTT0=
EXTT1=
EXTT2=
EXTT3=
EXTT4=
EXTT5=
EXTT6=
EXTT7=
EXTT8=
EXTT9=
PLAYORDER=
